<svg width="212" height="174" viewBox="0 0 212 174" fill="none" xmlns="http://www.w3.org/2000/svg">
<path d="M7.0565 150.2C-0.743501 137.9 11.2565 138 18.0565 128C26.4565 115.9 31.3565 111.3 37.1565 116.8C42.9565 122.3 38.5565 134.4 28.4565 145.1C18.3565 155.7 11.2565 156.8 7.0565 150.2Z" fill="#0050BA"/>
<path d="M59.6565 156.7C51.8565 144.4 63.8565 144.5 70.6565 134.5C79.0565 122.4 83.9565 117.8 89.7565 123.3C95.5565 128.8 91.1565 140.9 81.0565 151.6C70.9565 162.2 63.8565 163.3 59.6565 156.7Z" fill="#0050BA"/>
<path d="M107.556 90.5C102.156 120.1 75.0565 134.7 45.8565 134.7C11.8565 134.7 -1.1435 100.1 3.7565 74.6C7.2565 56.1 10.8565 50 21.8565 43C30.5565 37.5 43.8565 40 55.8565 40C66.8565 40 89.6565 44.7 96.8565 52C108.956 64.2 110.956 71.9 107.556 90.5Z" fill="#0050BA"/>
<path d="M191.856 68.5C191.856 116 137.556 140 100.856 140C64.1564 140 58.8564 105.2 58.8564 68.5C58.8564 36 88.6564 0 125.356 0C162.056 0 191.856 31.8 191.856 68.5Z" fill="#0050BA"/>
<path d="M30.0565 42.6L8.9565 61.5C7.9565 62.4 6.4565 62.1 6.1565 60.8L0.0564978 32.8C-0.343502 31.2 1.4565 29.6 3.0565 30.2L29.6565 39.2C31.1565 39.7 31.3565 41.5 30.0565 42.6Z" fill="#0050BA"/>
<path d="M21.3565 42.6L11.3565 52.4C10.8565 52.9 10.1565 52.7 9.95652 52.1L6.35652 38.5C6.15652 37.7 6.95652 36.9 7.75652 37.1L21.1565 40.9C21.8565 41.1 21.9565 42 21.3565 42.6Z" fill="black"/>
<path d="M74.5565 41.9L95.3565 61.2C96.3565 62.1 97.8565 61.8 98.1565 60.6L104.756 32.6C105.156 31 103.456 29.4 101.856 29.9L75.0565 38.4C73.6565 38.9 73.3565 40.7 74.5565 41.9Z" fill="#0050BA"/>
<path d="M83.2565 42L93.0565 52C93.5565 52.5 94.2565 52.4 94.4565 51.8L98.3565 38.2C98.5565 37.4 97.7565 36.6 96.9565 36.8L83.5565 40.4C82.8565 40.5 82.7565 41.4 83.2565 42Z" fill="black"/>
<path d="M173.457 35.2C213.457 54 214.557 112.4 210.257 127.1C205.357 143.9 191.757 163 170.057 172.3C159.257 176.9 150.557 163.3 159.457 159.2C173.157 152.9 183.657 143.5 189.757 128.9C196.157 113.5 192.157 67.3 168.457 51.2C162.157 47.1 168.057 32.7 173.457 35.2Z" fill="#0050BA"/>
</svg>
