<svg width="212" height="174" viewBox="0 0 212 174" fill="none" xmlns="http://www.w3.org/2000/svg">
<path d="M7.0565 150.2C-0.743501 137.9 11.2565 138 18.0565 128C26.4565 115.9 31.3565 111.3 37.1565 116.8C42.9565 122.3 38.5565 134.4 28.4565 145.1C18.3565 155.7 11.2565 156.8 7.0565 150.2Z" fill="#0050BA"/>
<path d="M59.6565 156.7C51.8565 144.4 63.8565 144.5 70.6565 134.5C79.0565 122.4 83.9565 117.8 89.7565 123.3C95.5565 128.8 91.1565 140.9 81.0565 151.6C70.9565 162.2 63.8565 163.3 59.6565 156.7Z" fill="#0050BA"/>
<path d="M107.556 90.5C102.156 120.1 75.0565 134.7 45.8565 134.7C11.8565 134.7 -1.1435 100.1 3.7565 74.6C7.2565 56.1 10.8565 50 21.8565 43C30.5565 37.5 43.8565 40 55.8565 40C66.8565 40 89.6565 44.7 96.8565 52C108.956 64.2 110.956 71.9 107.556 90.5Z" fill="#0050BA"/>
<path d="M191.856 68.5C191.856 116 137.556 140 100.856 140C64.1564 140 58.8564 105.2 58.8564 68.5C58.8564 36 88.6564 0 125.356 0C162.056 0 191.856 31.8 191.856 68.5Z" fill="#0050BA"/>
<path d="M30.0565 42.6L8.9565 61.5C7.9565 62.4 6.4565 62.1 6.1565 60.8L0.0564978 32.8C-0.343502 31.2 1.4565 29.6 3.0565 30.2L29.6565 39.2C31.1565 39.7 31.3565 41.5 30.0565 42.6Z" fill="#0050BA"/>
<path d="M21.3565 42.6L11.3565 52.4C10.8565 52.9 10.1565 52.7 9.95652 52.1L6.35652 38.5C6.15652 37.7 6.95652 36.9 7.75652 37.1L21.1565 40.9C21.8565 41.1 21.9565 42 21.3565 42.6Z" fill="black"/>
<path d="M74.5565 41.9L95.3565 61.2C96.3565 62.1 97.8565 61.8 98.1565 60.6L104.756 32.6C105.156 31 103.456 29.4 101.856 29.9L75.0565 38.4C73.6565 38.9 73.3565 40.7 74.5565 41.9Z" fill="#0050BA"/>
<path d="M83.2565 42L93.0565 52C93.5565 52.5 94.2565 52.4 94.4565 51.8L98.3565 38.2C98.5565 37.4 97.7565 36.6 96.9565 36.8L83.5565 40.4C82.8565 40.5 82.7565 41.4 83.2565 42Z" fill="black"/>
<path d="M173.457 35.2C213.457 54 214.557 112.4 210.257 127.1C205.357 143.9 191.757 163 170.057 172.3C159.257 176.9 150.557 163.3 159.457 159.2C173.157 152.9 183.657 143.5 189.757 128.9C196.157 113.5 192.157 67.3 168.457 51.2C162.157 47.1 168.057 32.7 173.457 35.2Z" fill="#0050BA"/>
<path d="M47.5 126C69.8675 126 88 109.882 88 90C88 70.1177 69.8675 54 47.5 54C25.1325 54 7 70.1177 7 90C7 109.882 25.1325 126 47.5 126Z" fill="#0050BA"/>
<path d="M56.5 83.6001C56.9 85.3001 56.6 87.2001 55.1 88.2001C53.7 89.1001 51.9 88.9001 50.6 87.9001C49.6 87.1001 49.1 85.6001 47.8 85.4001C46.3 85.3001 46 86.4001 45.1 87.3001C43.9 88.6001 42.1 89.2001 40.5 88.4001C38.6 87.6001 38.2 85.4 38.6 83.5C39.1 81.6 36.2 80.8001 35.7 82.7001C34.8 86.2001 36.1 89.9001 39.7 91.3001C43.2 92.6001 46.8 90.6001 48.6 87.6001C48.2 87.8001 47.7 88.1001 47.3 88.3001C47.5 88.3001 47.6 88.3001 47.8 88.3001C47.4 88.1001 46.9 87.8001 46.5 87.6001C48.4 90.6001 51.9 92.6001 55.4 91.3001C58.9 90.0001 60.2 86.2001 59.4 82.7001C58.9 81.0001 56 81.8001 56.5 83.6001Z" fill="black"/>
<path d="M71.7 84.7C74.1 84.7 76.4 84.7 78.8 84.7C79.1 84.7 79.5 84.7 79.8 84.7C81.1 84.7 81.1 82.7 79.8 82.7C77.4 82.7 75.1 82.7 72.7 82.7C72.4 82.7 72 82.7 71.7 82.7C70.4 82.7 70.4 84.7 71.7 84.7Z" fill="black"/>
<path d="M70.3999 89C72.6999 89.9 74.9999 90.7 77.2999 91.6C77.5999 91.7 77.9999 91.8 78.2999 92C78.7999 92.2 79.3999 91.8 79.4999 91.3C79.6999 90.7 79.2999 90.3 78.7999 90.1C76.4999 89.2 74.1999 88.4 71.8999 87.5C71.5999 87.4 71.1999 87.3 70.8999 87.1C70.3999 86.9 69.7999 87.3 69.6999 87.8C69.5999 88.3 69.8999 88.8 70.3999 89Z" fill="black"/>
<path d="M70.9001 80C73.2001 79.1 75.5001 78.3 77.8001 77.4C78.1001 77.3 78.5001 77.2 78.8001 77C79.3001 76.8 79.7001 76.3 79.5001 75.8C79.4001 75.3 78.8001 74.9 78.3001 75.1C76.0001 76 73.7001 76.8 71.4001 77.7C71.1001 77.8 70.7001 77.9 70.4001 78.1C69.9001 78.3 69.5001 78.8 69.7001 79.3C69.9001 79.8 70.4001 80.2 70.9001 80Z" fill="black"/>
<path d="M23.3 82.4C20.9 82.4 18.6 82.4 16.2 82.4C15.9 82.4 15.5 82.4 15.2 82.4C13.9 82.4 13.9 84.4 15.2 84.4C17.6 84.4 19.9 84.4 22.3 84.4C22.6 84.4 23 84.4 23.3 84.4C24.6 84.4 24.6 82.4 23.3 82.4Z" fill="black"/>
<path d="M24.6 78.1C22.3 77.2 20 76.4 17.7 75.5C17.4 75.4 17 75.3 16.7 75.1C16.2 74.9 15.6 75.3 15.5 75.8C15.3 76.4 15.7 76.8 16.2 77C18.5 77.9 20.8 78.7 23.1 79.6C23.4 79.7 23.8 79.8 24.1 80C24.6 80.2 25.2 79.8 25.3 79.3C25.4 78.7 25.1 78.3 24.6 78.1Z" fill="black"/>
<path d="M24.1 87.1C21.8 88 19.5 88.8 17.2 89.7C16.9 89.8 16.5 89.9 16.2 90.1C15.7 90.3 15.3 90.8 15.5 91.3C15.6 91.8 16.2 92.2 16.7 92C19 91.1 21.3 90.3 23.6 89.4C23.9 89.3 24.3 89.2 24.6 89C25.1 88.8 25.5 88.3 25.3 87.8C25.1 87.3 24.6 86.9 24.1 87.1Z" fill="black"/>
<path d="M50.7 78.3H44.4C43.4 78.3 42.5 77.5 42.5 76.4V76.1C42.5 75.1 43.3 74.2 44.4 74.2H50.7C51.7 74.2 52.6 75 52.6 76.1V76.4C52.6 77.4 51.7 78.3 50.7 78.3Z" fill="black"/>
<path d="M25.3 71.5C25.4 71.4 25.6 71.3 25.7 71.3C25.8 71.2 26 71.2 26.1 71.1C26.2 71.1 26.3 71 26.4 71C26.5 70.9 26.2 71.1 26.5 71C27.6 70.6 28.6 70.3 29.6 70.3C30.6 70.3 31.6 70.6 32.6 71C32.7 71 32.9 71.1 32.7 71C32.8 71 32.9 71.1 33 71.1C33.1 71.2 33.3 71.2 33.4 71.3C33.5 71.4 33.7 71.4 33.8 71.5C34.5 71.9 35.4 71.7 35.9 71C36.3 70.3 36.1 69.4 35.4 68.9C33.7 67.9 31.6 67.2 29.7 67.2C27.7 67.2 25.6 67.9 23.9 68.9C23.2 69.3 23 70.2 23.4 71C23.7 71.7 24.6 72 25.3 71.5Z" fill="black"/>
<path d="M61 71.5C61.1 71.4 61.3 71.3 61.4 71.3C61.5 71.2 61.7 71.2 61.8 71.1C61.9 71.1 62 71 62.1 71C62.2 70.9 61.9 71.1 62.2 71C63.3 70.6 64.3 70.3 65.3 70.3C66.3 70.3 67.3 70.6 68.3 71C68.4 71 68.6 71.1 68.4 71C68.5 71 68.6 71.1 68.7 71.1C68.8 71.2 69 71.2 69.1 71.3C69.2 71.4 69.4 71.4 69.5 71.5C70.2 71.9 71.1 71.7 71.6 71C72 70.3 71.8 69.4 71.1 68.9C69.4 67.9 67.3 67.2 65.4 67.2C63.4 67.2 61.3 67.9 59.6 68.9C58.9 69.3 58.7 70.2 59.1 71C59.3 71.7 60.3 72 61 71.5Z" fill="black"/>
</svg>
